<svg xmlns="http://www.w3.org/2000/svg" width="256" height="256" viewBox="0 0 100 100"><rect width="100" height="100" rx="20" fill="#2700ff"></rect><path fill="#fff" d="M25.71 50.62L25.71 50.62L24.95 53.73L33.23 53.73L32.47 50.62Q31.65 47.38 30.82 43.58Q29.99 39.79 29.16 36.41L29.16 36.41L28.89 36.41Q28.13 39.86 27.33 43.62Q26.54 47.38 25.71 50.62ZM20.61 72.42L8.46 72.42L22.12 27.57L36.48 27.57L50.14 72.42L37.58 72.42L35.37 62.90L22.81 62.90L20.61 72.42ZM66.28 72.42L54.42 72.42L54.42 27.57L66.28 27.57L66.28 44.27L79.67 44.27L79.67 27.57L91.54 27.57L91.54 72.42L79.67 72.42L79.67 54.62L66.28 54.62L66.28 72.42Z"></path></svg>